CommonSerif-Bold.ufo
<glyph name="V" format="2">
  <advance width="702"/>
  <unicode hex="0056"/>
  <anchor x="355" y="740" name="top"/>
  <anchor x="353" y="-60" name="b.minus-60"/>
  <outline>
    <contour>
      <point x="315" y="11" type="line" smooth="yes"/>
      <point x="322" y="-6"/>
      <point x="334" y="-12"/>
      <point x="348" y="-12" type="curve" smooth="yes"/>
      <point x="362" y="-12"/>
      <point x="375" y="-7"/>
      <point x="382" y="11" type="curve" smooth="yes"/>
      <point x="595" y="543" type="line" smooth="yes"/>
      <point x="619" y="603"/>
      <point x="651" y="610"/>
      <point x="695" y="613" type="curve"/>
      <point x="701" y="619"/>
      <point x="701" y="641"/>
      <point x="695" y="647" type="curve"/>
      <point x="665" y="646"/>
      <point x="633" y="645"/>
      <point x="601" y="645" type="curve" smooth="yes"/>
      <point x="560" y="645"/>
      <point x="505" y="646"/>
      <point x="468" y="647" type="curve"/>
      <point x="462" y="641"/>
      <point x="462" y="619"/>
      <point x="468" y="613" type="curve"/>
      <point x="506" y="610"/>
      <point x="552" y="604"/>
      <point x="537" y="566" type="curve" smooth="yes"/>
      <point x="384" y="174" type="line"/>
      <point x="381" y="174" type="line"/>
      <point x="243" y="573" type="line" smooth="yes"/>
      <point x="232" y="606"/>
      <point x="269" y="610"/>
      <point x="317" y="613" type="curve"/>
      <point x="323" y="619"/>
      <point x="323" y="641"/>
      <point x="317" y="647" type="curve"/>
      <point x="280" y="646"/>
      <point x="180" y="645"/>
      <point x="141" y="645" type="curve" smooth="yes"/>
      <point x="100" y="645"/>
      <point x="44" y="646"/>
      <point x="7" y="647" type="curve"/>
      <point x="1" y="641"/>
      <point x="1" y="619"/>
      <point x="7" y="613" type="curve"/>
      <point x="46" y="609"/>
      <point x="79" y="604"/>
      <point x="97" y="559" type="curve" smooth="yes"/>
    </contour>
  </outline>
</glyph>
<glyph name="uni024A" format="2">
  <advance width="670"/>
  <unicode hex="024A"/>
  <outline>
    <contour>
      <point x="476" y="12" type="curve"/>
      <point x="482" y="-148"/>
      <point x="549" y="-192"/>
      <point x="608" y="-192" type="curve" smooth="yes"/>
      <point x="695" y="-192"/>
      <point x="727" y="-146"/>
      <point x="727" y="-114" type="curve" smooth="yes"/>
      <point x="727" y="-91"/>
      <point x="714" y="-77"/>
      <point x="692" y="-77" type="curve" smooth="yes"/>
      <point x="664" y="-77"/>
      <point x="650" y="-95"/>
      <point x="645" y="-117" type="curve"/>
      <point x="639" y="-139"/>
      <point x="634" y="-159"/>
      <point x="603" y="-159" type="curve" smooth="yes"/>
      <point x="573" y="-159"/>
      <point x="556" y="-131"/>
      <point x="556" y="29" type="curve" smooth="yes"/>
      <point x="556" y="645" type="line" smooth="yes"/>
      <point x="556" y="655"/>
      <point x="553" y="658"/>
      <point x="541" y="658" type="curve"/>
      <point x="530" y="648"/>
      <point x="509" y="629"/>
      <point x="492" y="623" type="curve"/>
      <point x="449" y="646"/>
      <point x="399" y="658"/>
      <point x="349" y="658" type="curve" smooth="yes"/>
      <point x="170" y="658"/>
      <point x="38" y="506"/>
      <point x="38" y="310" type="curve" smooth="yes"/>
      <point x="38" y="113"/>
      <point x="178" y="-10"/>
      <point x="350" y="-10" type="curve" smooth="yes"/>
      <point x="396" y="-10"/>
      <point x="438" y="-2"/>
    </contour>
    <contour>
      <point x="336" y="624" type="curve" smooth="yes"/>
      <point x="389" y="624"/>
      <point x="435" y="605"/>
      <point x="475" y="569" type="curve"/>
      <point x="475" y="61" type="line"/>
      <point x="444" y="36"/>
      <point x="410" y="24"/>
      <point x="369" y="24" type="curve" smooth="yes"/>
      <point x="238" y="24"/>
      <point x="130" y="135"/>
      <point x="130" y="327" type="curve" smooth="yes"/>
      <point x="130" y="537"/>
      <point x="240" y="624"/>
    </contour>
  </outline>
</glyph>
<glyph name="uni0250" format="2">
  <advance width="456"/>
  <unicode hex="0250"/>
  <outline>
    <contour>
      <point x="167" y="382" type="line"/>
      <point x="160" y="422"/>
      <point x="133" y="440"/>
      <point x="89" y="440" type="curve" smooth="yes"/>
      <point x="79" y="440"/>
      <point x="70" y="439"/>
      <point x="61" y="438" type="curve"/>
      <point x="20" y="432"/>
      <point x="-12" y="413"/>
      <point x="-42" y="384" type="curve"/>
      <point x="-40" y="372"/>
      <point x="-35" y="364"/>
      <point x="-24" y="356" type="curve"/>
      <point x="-11" y="366"/>
      <point x="-1" y="370"/>
      <point x="18" y="370" type="curve" smooth="yes"/>
      <point x="40" y="370"/>
      <point x="46.6805" y="351.995"/>
      <point x="46" y="303" type="curve" smooth="yes"/>
      <point x="44" y="159" type="line" smooth="yes"/>
      <point x="42.0002" y="15.0139"/>
      <point x="133" y="-14"/>
      <point x="215" y="-14" type="curve" smooth="yes"/>
      <point x="288" y="-14"/>
      <point x="401" y="28"/>
      <point x="401" y="94" type="curve" smooth="yes"/>
      <point x="401" y="117"/>
      <point x="392" y="137"/>
      <point x="366" y="142" type="curve" smooth="yes"/>
      <point x="361" y="143"/>
      <point x="356" y="144"/>
      <point x="349" y="144" type="curve" smooth="yes"/>
      <point x="318" y="144"/>
      <point x="295" y="128"/>
      <point x="289" y="108" type="curve"/>
      <point x="288" y="105"/>
      <point x="287" y="101"/>
      <point x="287" y="98" type="curve" smooth="yes"/>
      <point x="287" y="93"/>
      <point x="288" y="87"/>
      <point x="289" y="81" type="curve" smooth="yes"/>
      <point x="290" y="74"/>
      <point x="292" y="68"/>
      <point x="292" y="61" type="curve" smooth="yes"/>
      <point x="292" y="58"/>
      <point x="292" y="54"/>
      <point x="291" y="51" type="curve"/>
      <point x="290" y="40"/>
      <point x="283" y="28"/>
      <point x="249" y="28" type="curve" smooth="yes"/>
      <point x="243" y="28"/>
      <point x="237" y="28"/>
      <point x="232" y="29" type="curve" smooth="yes"/>
      <point x="201" y="35"/>
      <point x="176" y="60"/>
      <point x="173" y="147" type="curve"/>
      <point x="172" y="155"/>
      <point x="172" y="164"/>
      <point x="172" y="173" type="curve"/>
      <point x="239" y="194" type="line" smooth="yes"/>
      <point x="344.026" y="226.918"/>
      <point x="418" y="256"/>
      <point x="418" y="335" type="curve" smooth="yes"/>
      <point x="418" y="404"/>
      <point x="380" y="440"/>
      <point x="293" y="440" type="curve" smooth="yes"/>
      <point x="290" y="440"/>
      <point x="287" y="440"/>
      <point x="283" y="439" type="curve"/>
      <point x="256" y="434"/>
      <point x="214" y="411"/>
      <point x="184" y="390" type="curve"/>
      <point x="180" y="387"/>
      <point x="176" y="385"/>
      <point x="173" y="382" type="curve"/>
    </contour>
    <contour>
      <point x="172" y="212" type="line"/>
      <point x="172" y="315" type="line"/>
      <point x="172" y="344" type="line"/>
      <point x="176" y="347"/>
      <point x="180" y="351"/>
      <point x="184" y="354" type="curve" smooth="yes"/>
      <point x="205" y="369"/>
      <point x="225" y="380"/>
      <point x="240" y="380" type="curve" smooth="yes"/>
      <point x="283" y="380"/>
      <point x="298" y="351"/>
      <point x="298" y="320" type="curve" smooth="yes"/>
      <point x="298" y="283"/>
      <point x="295" y="252"/>
      <point x="224" y="229" type="curve" smooth="yes"/>
    </contour>
  </outline>
</glyph>
<glyph name="uni026B" format="2">
  <advance width="325"/>
  <unicode hex="026B"/>
  <outline>
    <contour>
      <point x="40" y="-2" type="curve"/>
      <point x="82" y="-1"/>
      <point x="129" y="0"/>
      <point x="182" y="0" type="curve"/>
      <point x="182" y="122" type="line"/>
      <point x="112" y="122" type="line"/>
      <point x="112" y="39"/>
      <point x="101" y="35"/>
      <point x="40" y="32" type="curve"/>
      <point x="34" y="26"/>
      <point x="34" y="4"/>
    </contour>
    <contour>
      <point x="117.456" y="324.256" type="line"/>
      <point x="111.8" y="327"/>
      <point x="103.4" y="327"/>
      <point x="95" y="327" type="curve" smooth="yes"/>
      <point x="60" y="327"/>
      <point x="28" y="285"/>
      <point x="12" y="234" type="curve"/>
      <point x="12" y="220"/>
      <point x="26" y="216"/>
      <point x="38" y="216" type="curve"/>
      <point x="49" y="254"/>
      <point x="65" y="256"/>
      <point x="87" y="256" type="curve" smooth="yes"/>
      <point x="98.2" y="256"/>
      <point x="109.4" y="254.04"/>
      <point x="123.344" y="250.12" type="curve"/>
    </contour>
    <contour>
      <point x="238.464" y="223.992" type="line"/>
      <point x="242.44" y="228.36"/>
      <point x="247.2" y="229.2"/>
      <point x="250" y="232" type="curve"/>
      <point x="272" y="248"/>
      <point x="290" y="275"/>
      <point x="301" y="311" type="curve"/>
      <point x="301" y="323"/>
      <point x="287" y="331"/>
      <point x="273" y="331" type="curve"/>
      <point x="266" y="315"/>
      <point x="258" y="304"/>
      <point x="250" y="297" type="curve"/>
      <point x="247.2" y="294.2"/>
      <point x="242.44" y="291.4"/>
      <point x="238.464" y="291.344" type="curve"/>
    </contour>
    <contour>
      <point x="112" y="110" type="line"/>
      <point x="242" y="110" type="line"/>
      <point x="242" y="590" type="line"/>
      <point x="112" y="590" type="line"/>
    </contour>
    <contour>
      <point x="111.937" y="576" type="curve"/>
      <point x="241.937" y="576" type="line"/>
      <point x="241.937" y="627.375"/>
      <point x="243.015" y="655.678"/>
      <point x="245.937" y="681" type="curve"/>
      <point x="245.937" y="691.674"/>
      <point x="237.378" y="698"/>
      <point x="222.937" y="698" type="curve"/>
      <point x="193.701" y="686.306"/>
      <point x="109.627" y="673.08"/>
      <point x="44.9367" y="670" type="curve"/>
      <point x="43.2367" y="664.9"/>
      <point x="44.5081" y="643.286"/>
      <point x="46.9367" y="636" type="curve"/>
      <point x="99.5414" y="630.942"/>
      <point x="111.937" y="619.5"/>
    </contour>
  </outline>
</glyph>
<glyph name="uni026C" format="2">
  <advance width="404"/>
  <unicode hex="026C"/>
  <outline>
    <contour>
      <point x="118" y="-2" type="curve"/>
      <point x="160" y="-1"/>
      <point x="207" y="0"/>
      <point x="260" y="0" type="curve"/>
      <point x="260" y="122" type="line"/>
      <point x="190" y="122" type="line"/>
      <point x="190" y="39"/>
      <point x="179" y="35"/>
      <point x="118" y="32" type="curve"/>
      <point x="112" y="26"/>
      <point x="112" y="4"/>
    </contour>
    <contour>
      <point x="18" y="364" type="curve" smooth="yes"/>
      <point x="18" y="302"/>
      <point x="56" y="281"/>
      <point x="146" y="281" type="curve" smooth="yes"/>
      <point x="200" y="281" type="line"/>
      <point x="200" y="315" type="line"/>
      <point x="126" y="315" type="line" smooth="yes"/>
      <point x="78" y="315"/>
      <point x="48" y="334"/>
      <point x="48" y="363" type="curve" smooth="yes"/>
      <point x="48" y="387"/>
      <point x="68" y="396"/>
      <point x="92" y="396" type="curve" smooth="yes"/>
      <point x="147" y="396"/>
      <point x="177.931" y="346"/>
      <point x="196.931" y="303.93" type="curve"/>
      <point x="196.931" y="348.726" type="line"/>
      <point x="175.602" y="388.679"/>
      <point x="145.229" y="426"/>
      <point x="85" y="426" type="curve" smooth="yes"/>
      <point x="63" y="426"/>
      <point x="18" y="406"/>
    </contour>
    <contour>
      <point x="366" y="315" type="line"/>
      <point x="309.6" y="315" type="line"/>
      <point x="309.6" y="281" type="line"/>
      <point x="366" y="281" type="line"/>
    </contour>
    <contour>
      <point x="190" y="110" type="line"/>
      <point x="320" y="110" type="line"/>
      <point x="320" y="590" type="line"/>
      <point x="190" y="590" type="line"/>
    </contour>
    <contour>
      <point x="189.937" y="576" type="curve"/>
      <point x="319.937" y="576" type="line"/>
      <point x="319.937" y="627.375"/>
      <point x="321.015" y="655.678"/>
      <point x="323.937" y="681" type="curve"/>
      <point x="323.937" y="691.674"/>
      <point x="315.378" y="698"/>
      <point x="300.937" y="698" type="curve"/>
      <point x="271.701" y="686.306"/>
      <point x="187.627" y="673.08"/>
      <point x="122.937" y="670" type="curve"/>
      <point x="121.237" y="664.9"/>
      <point x="122.508" y="643.286"/>
      <point x="124.937" y="636" type="curve"/>
      <point x="177.541" y="630.942"/>
      <point x="189.937" y="619.5"/>
    </contour>
  </outline>
</glyph>
<glyph name="circumflex" format="2">
  <advance width="350"/>
  <unicode hex="02C6"/>
  <outline>
    <contour>
      <point x="49" y="518" type="curve"/>
      <point x="73" y="500" type="line"/>
      <point x="95" y="510"/>
      <point x="146" y="554"/>
      <point x="175" y="584" type="curve"/>
      <point x="206" y="551"/>
      <point x="256" y="510"/>
      <point x="277" y="500" type="curve"/>
      <point x="301" y="518" type="line"/>
      <point x="290" y="528"/>
      <point x="217" y="621"/>
      <point x="201" y="647" type="curve"/>
      <point x="149" y="647" type="line"/>
      <point x="134" y="623"/>
      <point x="57" y="526"/>
    </contour>
  </outline>
</glyph>
<glyph name="uni0344" format="2">
  <unicode hex="0344"/>
  <anchor x="-210" y="500" name="_top"/>
  <outline>
    <contour>
      <point x="-148" y="767" type="curve" smooth="yes"/>
      <point x="-159" y="767"/>
      <point x="-172.137" y="761.049"/>
      <point x="-176" y="750" type="curve" smooth="yes"/>
      <point x="-226" y="607" type="line" smooth="yes"/>
      <point x="-227.044" y="604.015"/>
      <point x="-227" y="599"/>
      <point x="-227" y="598" type="curve" smooth="yes"/>
      <point x="-227" y="591"/>
      <point x="-205" y="584"/>
      <point x="-197" y="584" type="curve" smooth="yes"/>
      <point x="-193" y="584"/>
      <point x="-189" y="588"/>
      <point x="-186" y="592" type="curve"/>
      <point x="-82" y="714" type="line" smooth="yes"/>
      <point x="-77.8461" y="718.873"/>
      <point x="-77" y="724"/>
      <point x="-77" y="729" type="curve" smooth="yes"/>
      <point x="-77" y="749"/>
      <point x="-128" y="767"/>
    </contour>
    <contour>
      <point x="-355" y="554" type="curve" smooth="yes"/>
      <point x="-355" y="524"/>
      <point x="-330" y="500"/>
      <point x="-300" y="500" type="curve" smooth="yes"/>
      <point x="-269" y="500"/>
      <point x="-245" y="524"/>
      <point x="-245" y="554" type="curve" smooth="yes"/>
      <point x="-245" y="585"/>
      <point x="-269" y="609"/>
      <point x="-300" y="609" type="curve" smooth="yes"/>
      <point x="-330" y="609"/>
      <point x="-355" y="585"/>
    </contour>
    <contour>
      <point x="-169" y="554" type="curve" smooth="yes"/>
      <point x="-169" y="524"/>
      <point x="-145" y="500"/>
      <point x="-114" y="500" type="curve" smooth="yes"/>
      <point x="-84" y="500"/>
      <point x="-59" y="524"/>
      <point x="-59" y="554" type="curve" smooth="yes"/>
      <point x="-59" y="585"/>
      <point x="-84" y="609"/>
      <point x="-114" y="609" type="curve" smooth="yes"/>
      <point x="-145" y="609"/>
      <point x="-169" y="585"/>
    </contour>
  </outline>
</glyph>
<glyph name="Sigma" format="2">
  <advance width="655"/>
  <unicode hex="03A3"/>
  <outline>
    <contour>
      <point x="529" y="645" type="curve" smooth="yes"/>
      <point x="165" y="645" type="line" smooth="yes"/>
      <point x="162" y="645"/>
      <point x="155" y="645"/>
      <point x="147" y="645" type="curve"/>
      <point x="107" y="646"/>
      <point x="22" y="647"/>
      <point x="22" y="647" type="curve"/>
      <point x="16" y="641"/>
      <point x="16" y="619"/>
      <point x="22" y="613" type="curve"/>
      <point x="34" y="604"/>
      <point x="49" y="588"/>
      <point x="60" y="576" type="curve"/>
      <point x="65" y="570"/>
      <point x="70" y="564"/>
      <point x="75" y="558" type="curve" smooth="yes"/>
      <point x="316" y="276" type="line"/>
      <point x="298" y="261" type="line"/>
      <point x="123" y="111" type="line" smooth="yes"/>
      <point x="113" y="102"/>
      <point x="84" y="78"/>
      <point x="57" y="57" type="curve" smooth="yes"/>
      <point x="44" y="47"/>
      <point x="31" y="38"/>
      <point x="21" y="33" type="curve"/>
      <point x="15" y="27"/>
      <point x="15" y="4"/>
      <point x="21" y="-2" type="curve"/>
      <point x="21" y="-2"/>
      <point x="66" y="-1"/>
      <point x="102" y="-1" type="curve"/>
      <point x="121" y="0"/>
      <point x="136" y="0"/>
      <point x="143" y="0" type="curve" smooth="yes"/>
      <point x="440" y="0" type="line" smooth="yes"/>
      <point x="488" y="0"/>
      <point x="578" y="-2"/>
      <point x="578" y="-2" type="curve"/>
      <point x="592" y="48"/>
      <point x="607" y="144"/>
      <point x="615" y="195" type="curve"/>
      <point x="605" y="201"/>
      <point x="583" y="203"/>
      <point x="570" y="200" type="curve"/>
      <point x="543" y="112"/>
      <point x="484.998" y="109.153"/>
      <point x="419" y="108" type="curve" smooth="yes"/>
      <point x="190" y="104" type="line"/>
      <point x="453" y="325" type="line"/>
      <point x="453" y="339" type="line"/>
      <point x="454" y="340" type="line"/>
      <point x="230" y="598" type="line"/>
      <point x="433" y="598" type="line" smooth="yes"/>
      <point x="508" y="598"/>
      <point x="519" y="545"/>
      <point x="541" y="476" type="curve"/>
      <point x="553" y="474"/>
      <point x="574" y="476"/>
      <point x="584" y="481" type="curve"/>
      <point x="586" y="526"/>
      <point x="584" y="638"/>
      <point x="582" y="646" type="curve"/>
      <point x="582" y="648"/>
      <point x="581" y="649"/>
      <point x="578" y="649" type="curve"/>
      <point x="561" y="646"/>
      <point x="553" y="645"/>
    </contour>
  </outline>
</glyph>
<glyph name="uni047D" format="2">
  <advance width="705"/>
  <unicode hex="047D"/>
  <outline>
    <component base="uni0461"/>
    <contour>
      <point x="254.162" y="622" type="curve" smooth="yes"/>
      <point x="198.247" y="622"/>
      <point x="161.72" y="588.809"/>
      <point x="161.72" y="538" type="curve" smooth="yes"/>
      <point x="161.72" y="503.663"/>
      <point x="185.02" y="480"/>
      <point x="218.831" y="480" type="curve" smooth="yes"/>
      <point x="250.039" y="480"/>
      <point x="276.53" y="499.121"/>
      <point x="276.53" y="524.327" type="curve" smooth="yes"/>
      <point x="276.53" y="539.644"/>
      <point x="262.722" y="547.752"/>
      <point x="262.722" y="563.069" type="curve" smooth="yes"/>
      <point x="262.722" y="573.881"/>
      <point x="269.2" y="591"/>
      <point x="287.67" y="591" type="curve" smooth="yes"/>
      <point x="346.115" y="591"/>
      <point x="413.529" y="541"/>
      <point x="465.529" y="541" type="curve" smooth="yes"/>
      <point x="511.664" y="541"/>
      <point x="541.72" y="570.192"/>
      <point x="541.72" y="615" type="curve" smooth="yes"/>
      <point x="541.72" y="657.28"/>
      <point x="516.42" y="686"/>
      <point x="479.175" y="686" type="curve" smooth="yes"/>
      <point x="444.004" y="686"/>
      <point x="422.379" y="669.925"/>
      <point x="422.379" y="643.404" type="curve" smooth="yes"/>
      <point x="422.379" y="612.673"/>
      <point x="451.722" y="617.192"/>
      <point x="451.722" y="592.788" type="curve" smooth="yes"/>
      <point x="451.722" y="581.038"/>
      <point x="440.23" y="572"/>
      <point x="433.589" y="572" type="curve" smooth="yes"/>
      <point x="391.539" y="572"/>
      <point x="311.162" y="622"/>
    </contour>
  </outline>
</glyph>
<glyph name="uni048C" format="2">
  <advance width="644"/>
  <unicode hex="048C"/>
  <outline>
    <component base="uni042C" xOffset="5"/>
    <contour>
      <point x="191" y="550" type="line"/>
      <point x="191" y="502" type="line"/>
      <point x="373.767" y="502" type="line"/>
      <point x="373.767" y="550" type="line"/>
    </contour>
    <contour>
      <point x="174" y="502" type="line"/>
      <point x="174" y="550" type="line"/>
      <point x="47" y="550" type="line" smooth="yes"/>
      <point x="38" y="550"/>
      <point x="22" y="540"/>
      <point x="22" y="519" type="curve" smooth="yes"/>
      <point x="22" y="511"/>
      <point x="25" y="502"/>
      <point x="32" y="502" type="curve" smooth="yes"/>
    </contour>
    <contour>
      <point x="293" y="502" type="line"/>
      <point x="428" y="502" type="line" smooth="yes"/>
      <point x="439" y="502"/>
      <point x="453" y="514"/>
      <point x="453" y="531" type="curve" smooth="yes"/>
      <point x="453" y="540"/>
      <point x="450" y="550"/>
      <point x="443" y="550" type="curve" smooth="yes"/>
      <point x="293" y="550" type="line"/>
    </contour>
  </outline>
</glyph>
<glyph name="uni0496" format="2">
  <advance width="1020"/>
  <unicode hex="0496"/>
  <outline>
    <component base="uni0416"/>
    <contour>
      <point x="838.759" y="15.6629" type="line"/>
      <point x="914.54" y="-13.0415"/>
      <point x="947.153" y="-47.8127"/>
      <point x="963" y="-116" type="curve"/>
      <point x="985.44" y="-122"/>
      <point x="1008.56" y="-122"/>
      <point x="1031" y="-116" type="curve"/>
      <point x="1025" y="16.9505" type="line" smooth="yes"/>
      <point x="1024.64" y="24.8802"/>
      <point x="1024.05" y="33.1037"/>
      <point x="1017.93" y="34" type="curve" smooth="yes"/>
      <point x="985.657" y="38.7278"/>
      <point x="959.03" y="58.5972"/>
      <point x="947.563" y="72.624" type="curve"/>
    </contour>
  </outline>
</glyph>
<glyph name="uni04CA" format="2">
  <advance width="568"/>
  <unicode hex="04CA"/>
  <outline>
    <contour>
      <point x="91" y="355" type="curve" smooth="yes"/>
      <point x="91" y="128" type="line" smooth="yes"/>
      <point x="91" y="112"/>
      <point x="91" y="95"/>
      <point x="91" y="78" type="curve" smooth="yes"/>
      <point x="91" y="43"/>
      <point x="89" y="36"/>
      <point x="71" y="35" type="curve"/>
      <point x="63" y="35"/>
      <point x="55" y="35"/>
      <point x="47" y="35" type="curve" smooth="yes"/>
      <point x="35" y="35"/>
      <point x="27" y="34"/>
      <point x="23" y="31" type="curve"/>
      <point x="21" y="30"/>
      <point x="20" y="28"/>
      <point x="20" y="26" type="curve" smooth="yes"/>
      <point x="20" y="19"/>
      <point x="20" y="12"/>
      <point x="20" y="5" type="curve" smooth="yes"/>
      <point x="20" y="3"/>
      <point x="21" y="1"/>
      <point x="21" y="-1" type="curve"/>
      <point x="54" y="-1"/>
      <point x="111" y="1"/>
      <point x="144" y="1" type="curve"/>
      <point x="187" y="0"/>
      <point x="230" y="0"/>
      <point x="273" y="-1" type="curve"/>
      <point x="273" y="1"/>
      <point x="274" y="3"/>
      <point x="274" y="5" type="curve" smooth="yes"/>
      <point x="274" y="12"/>
      <point x="274" y="19"/>
      <point x="274" y="26" type="curve" smooth="yes"/>
      <point x="274" y="28"/>
      <point x="273" y="30"/>
      <point x="271" y="31" type="curve"/>
      <point x="267" y="34"/>
      <point x="259" y="35"/>
      <point x="247" y="35" type="curve" smooth="yes"/>
      <point x="240" y="35"/>
      <point x="234" y="35"/>
      <point x="227" y="35" type="curve"/>
      <point x="211" y="36"/>
      <point x="208" y="42"/>
      <point x="208" y="78" type="curve" smooth="yes"/>
      <point x="208" y="90"/>
      <point x="208" y="102"/>
      <point x="208" y="114" type="curve" smooth="yes"/>
      <point x="208" y="209" type="line"/>
      <point x="367" y="209" type="line"/>
      <point x="367" y="125" type="line" smooth="yes"/>
      <point x="367" y="109"/>
      <point x="367" y="93"/>
      <point x="367" y="77" type="curve" smooth="yes"/>
      <point x="367" y="42"/>
      <point x="365" y="35"/>
      <point x="349" y="35" type="curve" smooth="yes"/>
      <point x="342" y="35"/>
      <point x="335" y="35"/>
      <point x="328" y="35" type="curve" smooth="yes"/>
      <point x="317" y="35"/>
      <point x="308" y="34"/>
      <point x="304" y="31" type="curve"/>
      <point x="302" y="30"/>
      <point x="301" y="28"/>
      <point x="301" y="26" type="curve" smooth="yes"/>
      <point x="301" y="20"/>
      <point x="301" y="14"/>
      <point x="301" y="8" type="curve"/>
      <point x="304" y="5"/>
      <point x="308" y="2"/>
      <point x="311" y="-1" type="curve"/>
      <point x="342" y="0"/>
      <point x="388" y="0"/>
      <point x="420" y="1" type="curve"/>
      <point x="429" y="1"/>
      <point x="437" y="0"/>
      <point x="446" y="0" type="curve" smooth="yes"/>
      <point x="454" y="0"/>
      <point x="463" y="0"/>
      <point x="471" y="0" type="curve"/>
      <point x="416" y="-123" type="line"/>
      <point x="500" y="-123" type="line"/>
      <point x="556" y="1" type="line"/>
      <point x="556" y="1"/>
      <point x="556" y="1"/>
      <point x="556" y="1" type="curve"/>
      <point x="561" y="12"/>
      <point x="566" y="24"/>
      <point x="571" y="35" type="curve"/>
      <point x="548" y="35"/>
      <point x="526" y="35"/>
      <point x="503" y="35" type="curve" smooth="yes"/>
      <point x="487" y="35"/>
      <point x="485" y="41"/>
      <point x="485" y="77" type="curve" smooth="yes"/>
      <point x="485" y="90"/>
      <point x="485" y="102"/>
      <point x="485" y="115" type="curve" smooth="yes"/>
      <point x="485" y="316" type="line" smooth="yes"/>
      <point x="485" y="329"/>
      <point x="485" y="341"/>
      <point x="485" y="354" type="curve" smooth="yes"/>
      <point x="485" y="391"/>
      <point x="487" y="397"/>
      <point x="503" y="397" type="curve" smooth="yes"/>
      <point x="511" y="397"/>
      <point x="520" y="397"/>
      <point x="528" y="397" type="curve" smooth="yes"/>
      <point x="540" y="397"/>
      <point x="548" y="399"/>
      <point x="552" y="402" type="curve"/>
      <point x="554" y="403"/>
      <point x="555" y="405"/>
      <point x="555" y="407" type="curve" smooth="yes"/>
      <point x="555" y="413"/>
      <point x="555" y="418"/>
      <point x="555" y="424" type="curve"/>
      <point x="552" y="427"/>
      <point x="550" y="431"/>
      <point x="547" y="434" type="curve"/>
      <point x="517" y="433"/>
      <point x="478" y="432"/>
      <point x="445" y="432" type="curve" smooth="yes"/>
      <point x="436" y="432"/>
      <point x="428" y="432"/>
      <point x="421" y="432" type="curve"/>
      <point x="384" y="433"/>
      <point x="347" y="433"/>
      <point x="310" y="434" type="curve"/>
      <point x="307" y="431"/>
      <point x="304" y="427"/>
      <point x="301" y="424" type="curve"/>
      <point x="301" y="418"/>
      <point x="301" y="412"/>
      <point x="301" y="406" type="curve" smooth="yes"/>
      <point x="301" y="404"/>
      <point x="302" y="402"/>
      <point x="304" y="401" type="curve"/>
      <point x="308" y="398"/>
      <point x="317" y="397"/>
      <point x="328" y="397" type="curve" smooth="yes"/>
      <point x="335" y="397"/>
      <point x="342" y="397"/>
      <point x="349" y="397" type="curve" smooth="yes"/>
      <point x="364" y="397"/>
      <point x="367" y="389"/>
      <point x="367" y="354" type="curve" smooth="yes"/>
      <point x="367" y="341"/>
      <point x="367" y="328"/>
      <point x="367" y="315" type="curve" smooth="yes"/>
      <point x="367" y="251" type="line"/>
      <point x="208" y="251" type="line"/>
      <point x="208" y="316" type="line" smooth="yes"/>
      <point x="208" y="329"/>
      <point x="208" y="342"/>
      <point x="208" y="355" type="curve" smooth="yes"/>
      <point x="208" y="392"/>
      <point x="211" y="397"/>
      <point x="227" y="397" type="curve" smooth="yes"/>
      <point x="234" y="397"/>
      <point x="240" y="397"/>
      <point x="247" y="397" type="curve" smooth="yes"/>
      <point x="259" y="397"/>
      <point x="267" y="399"/>
      <point x="271" y="402" type="curve"/>
      <point x="273" y="403"/>
      <point x="274" y="405"/>
      <point x="274" y="407" type="curve" smooth="yes"/>
      <point x="274" y="413"/>
      <point x="274" y="418"/>
      <point x="274" y="424" type="curve"/>
      <point x="271" y="427"/>
      <point x="269" y="431"/>
      <point x="266" y="434" type="curve"/>
      <point x="230" y="433"/>
      <point x="181" y="432"/>
      <point x="145" y="431" type="curve"/>
      <point x="104" y="432"/>
      <point x="62" y="433"/>
      <point x="21" y="434" type="curve"/>
      <point x="21" y="432"/>
      <point x="20" y="430"/>
      <point x="20" y="428" type="curve" smooth="yes"/>
      <point x="20" y="421"/>
      <point x="20" y="413"/>
      <point x="20" y="406" type="curve" smooth="yes"/>
      <point x="20" y="404"/>
      <point x="21" y="402"/>
      <point x="23" y="401" type="curve"/>
      <point x="27" y="398"/>
      <point x="35" y="397"/>
      <point x="47" y="397" type="curve" smooth="yes"/>
      <point x="55" y="397"/>
      <point x="64" y="397"/>
      <point x="72" y="397" type="curve" smooth="yes"/>
      <point x="89" y="397"/>
      <point x="91" y="389"/>
    </contour>
  </outline>
</glyph>
<glyph name="uni1D35" format="2">
  <advance width="228"/>
  <unicode hex="1D35"/>
  <outline>
    <contour>
      <point x="30" y="349" type="curve"/>
      <point x="52" y="350"/>
      <point x="93" y="350"/>
      <point x="115" y="350" type="curve" smooth="yes"/>
      <point x="136" y="350"/>
      <point x="176" y="350"/>
      <point x="198" y="349" type="curve"/>
      <point x="203" y="353"/>
      <point x="203" y="366"/>
      <point x="198" y="370" type="curve"/>
      <point x="168" y="371"/>
      <point x="152" y="374"/>
      <point x="152" y="424" type="curve" smooth="yes"/>
      <point x="152" y="668" type="line" smooth="yes"/>
      <point x="152" y="718"/>
      <point x="168" y="721"/>
      <point x="198" y="722" type="curve"/>
      <point x="203" y="726"/>
      <point x="203" y="739"/>
      <point x="198" y="743" type="curve"/>
      <point x="176" y="742"/>
      <point x="136" y="742"/>
      <point x="115" y="742" type="curve" smooth="yes"/>
      <point x="93" y="742"/>
      <point x="52" y="742"/>
      <point x="30" y="743" type="curve"/>
      <point x="25" y="739"/>
      <point x="25" y="726"/>
      <point x="30" y="722" type="curve"/>
      <point x="60" y="721"/>
      <point x="76" y="718"/>
      <point x="76" y="668" type="curve" smooth="yes"/>
      <point x="76" y="424" type="line" smooth="yes"/>
      <point x="76" y="374"/>
      <point x="60" y="371"/>
      <point x="30" y="370" type="curve"/>
      <point x="25" y="366"/>
      <point x="25" y="353"/>
    </contour>
  </outline>
</glyph>
<glyph name="uni1FC0" format="2">
  <advance width="421"/>
  <unicode hex="1FC0"/>
  <anchor x="210" y="510" name="_t.gr_UC"/>
  <anchor x="210" y="510" name="_t.gr_LC"/>
  <outline>
    <contour>
      <point x="275" y="567" type="curve" smooth="yes"/>
      <point x="256" y="567"/>
      <point x="239.273" y="579.343"/>
      <point x="223" y="592" type="curve" smooth="yes"/>
      <point x="203.266" y="607.349"/>
      <point x="181" y="623"/>
      <point x="150" y="623" type="curve" smooth="yes"/>
      <point x="107" y="623"/>
      <point x="85" y="586"/>
      <point x="71" y="521" type="curve"/>
      <point x="77.2616" y="516.344"/>
      <point x="86.6207" y="512.591"/>
      <point x="97" y="513" type="curve"/>
      <point x="106" y="550"/>
      <point x="118" y="564"/>
      <point x="144" y="564" type="curve" smooth="yes"/>
      <point x="161" y="564"/>
      <point x="179.963" y="551.949"/>
      <point x="198" y="539" type="curve" smooth="yes"/>
      <point x="218.964" y="523.949"/>
      <point x="240" y="510"/>
      <point x="262" y="510" type="curve" smooth="yes"/>
      <point x="308" y="510"/>
      <point x="336" y="548"/>
      <point x="349" y="614" type="curve"/>
      <point x="341.68" y="619.387"/>
      <point x="332.974" y="623"/>
      <point x="323" y="624" type="curve"/>
      <point x="309" y="577"/>
      <point x="296" y="567"/>
    </contour>
  </outline>
</glyph>
<glyph name="uni1FED" format="2">
  <advance width="375"/>
  <unicode hex="1FED"/>
  <anchor x="201" y="510" name="_t.gr_LC"/>
  <outline>
    <component base="uni1FEF" xOffset="55" yOffset="87"/>
    <contour>
      <point x="57" y="564" type="curve" smooth="yes"/>
      <point x="57" y="534"/>
      <point x="82" y="510"/>
      <point x="112" y="510" type="curve" smooth="yes"/>
      <point x="143" y="510"/>
      <point x="167" y="534"/>
      <point x="167" y="564" type="curve" smooth="yes"/>
      <point x="167" y="595"/>
      <point x="143" y="619"/>
      <point x="112" y="619" type="curve" smooth="yes"/>
      <point x="82" y="619"/>
      <point x="57" y="595"/>
    </contour>
    <contour>
      <point x="243" y="564" type="curve" smooth="yes"/>
      <point x="243" y="534"/>
      <point x="267" y="510"/>
      <point x="298" y="510" type="curve" smooth="yes"/>
      <point x="328" y="510"/>
      <point x="353" y="534"/>
      <point x="353" y="564" type="curve" smooth="yes"/>
      <point x="353" y="595"/>
      <point x="328" y="619"/>
      <point x="298" y="619" type="curve" smooth="yes"/>
      <point x="267" y="619"/>
      <point x="243" y="595"/>
    </contour>
  </outline>
</glyph>
<glyph name="uni201F" format="2">
  <advance width="440"/>
  <unicode hex="201F"/>
  <outline>
    <contour>
      <point x="39" y="671" type="curve" smooth="yes"/>
      <point x="39" y="582.978"/>
      <point x="102.769" y="514.521"/>
      <point x="171" y="490" type="curve"/>
      <point x="183" y="495"/>
      <point x="187" y="505"/>
      <point x="184" y="519" type="curve"/>
      <point x="137.497" y="541.089"/>
      <point x="108" y="598.444"/>
      <point x="108" y="638" type="curve" smooth="yes"/>
      <point x="108" y="664"/>
      <point x="139" y="668"/>
      <point x="149" y="669" type="curve"/>
      <point x="168" y="672"/>
      <point x="199" y="697"/>
      <point x="199" y="724" type="curve" smooth="yes"/>
      <point x="199" y="763.072"/>
      <point x="173.623" y="794"/>
      <point x="131" y="794" type="curve" smooth="yes"/>
      <point x="86.0385" y="794"/>
      <point x="39" y="752.606"/>
    </contour>
    <contour>
      <point x="236" y="671" type="curve" smooth="yes"/>
      <point x="236" y="582.978"/>
      <point x="299.769" y="514.521"/>
      <point x="368" y="490" type="curve"/>
      <point x="380" y="495"/>
      <point x="384" y="505"/>
      <point x="381" y="519" type="curve"/>
      <point x="334.497" y="541.089"/>
      <point x="305" y="598.444"/>
      <point x="305" y="638" type="curve" smooth="yes"/>
      <point x="305" y="664"/>
      <point x="336" y="668"/>
      <point x="346" y="669" type="curve"/>
      <point x="365" y="672"/>
      <point x="396" y="697"/>
      <point x="396" y="724" type="curve" smooth="yes"/>
      <point x="396" y="763.072"/>
      <point x="370.623" y="794"/>
      <point x="328" y="794" type="curve" smooth="yes"/>
      <point x="283.038" y="794"/>
      <point x="236" y="752.606"/>
    </contour>
  </outline>
</glyph>
<glyph name="lira" format="2">
  <advance width="520"/>
  <unicode hex="20A4"/>
  <outline>
    <contour>
      <point x="138.494" y="285.348" type="line" smooth="yes"/>
      <point x="138.494" y="217.939"/>
      <point x="131.409" y="156.07"/>
      <point x="87.76" y="100.38" type="curve"/>
      <point x="54.9942" y="83.4683"/>
      <point x="18" y="47.5316"/>
      <point x="18" y="16.8797" type="curve" smooth="yes"/>
      <point x="18" y="-1.08863"/>
      <point x="30.6835" y="-18"/>
      <point x="53.9367" y="-18" type="curve" smooth="yes"/>
      <point x="85.6456" y="-18"/>
      <point x="118.411" y="-3.20253"/>
      <point x="118.411" y="27.4494" type="curve" smooth="yes"/>
      <point x="118.411" y="41.1899"/>
      <point x="121.582" y="55.9873"/>
      <point x="158.576" y="55.9873" type="curve" smooth="yes"/>
      <point x="178.658" y="55.9873"/>
      <point x="201.716" y="47.2285"/>
      <point x="226.222" y="31.6772" type="curve" smooth="yes"/>
      <point x="256.682" y="12.3466"/>
      <point x="298.095" y="-9.5443"/>
      <point x="344.601" y="-9.5443" type="curve" smooth="yes"/>
      <point x="423.873" y="-9.5443"/>
      <point x="473.551" y="57.0443"/>
      <point x="493.633" y="112.006" type="curve"/>
      <point x="489.405" y="119.405"/>
      <point x="478.835" y="125.747"/>
      <point x="469.323" y="127.861" type="curve"/>
      <point x="441.842" y="90.8671"/>
      <point x="395.335" y="68.6709"/>
      <point x="363.627" y="68.6709" type="curve" smooth="yes"/>
      <point x="342.487" y="68.6709"/>
      <point x="326.703" y="75.1179"/>
      <point x="310.778" y="85.5823" type="curve" smooth="yes"/>
      <point x="289.708" y="99.4284"/>
      <point x="250.532" y="114.12"/>
      <point x="212.481" y="114.12" type="curve" smooth="yes"/>
      <point x="202.968" y="114.12"/>
      <point x="192.399" y="113.063"/>
      <point x="181.829" y="112.006" type="curve"/>
      <point x="179.715" y="114.12" type="line"/>
      <point x="244.56" y="168.989"/>
      <point x="275.722" y="201.823"/>
      <point x="275.785" y="285.348" type="curve" smooth="yes"/>
      <point x="275.899" y="438.608" type="line" smooth="yes"/>
      <point x="275.968" y="531.62"/>
      <point x="288.582" y="607.722"/>
      <point x="338.259" y="607.722" type="curve" smooth="yes"/>
      <point x="365.74" y="607.722"/>
      <point x="372.082" y="534.791"/>
      <point x="428.101" y="534.791" type="curve" smooth="yes"/>
      <point x="464.038" y="534.791"/>
      <point x="488.348" y="559.101"/>
      <point x="488.348" y="595.038" type="curve" smooth="yes"/>
      <point x="488.348" y="644.715"/>
      <point x="413.304" y="650"/>
      <point x="388.994" y="650" type="curve" smooth="yes"/>
      <point x="238.905" y="650"/>
      <point x="138.494" y="530.563"/>
      <point x="138.494" y="384.703" type="curve" smooth="yes"/>
    </contour>
    <contour>
      <point x="182.592" y="330.792" type="line"/>
      <point x="182.592" y="378.792" type="line"/>
      <point x="55.5918" y="378.792" type="line" smooth="yes"/>
      <point x="46.5918" y="378.792"/>
      <point x="30.5918" y="368.792"/>
      <point x="30.5918" y="347.792" type="curve" smooth="yes"/>
      <point x="30.5918" y="339.792"/>
      <point x="33.5918" y="330.792"/>
      <point x="40.5918" y="330.792" type="curve" smooth="yes"/>
    </contour>
    <contour>
      <point x="182.592" y="237.107" type="line"/>
      <point x="182.592" y="285.107" type="line"/>
      <point x="55.5918" y="285.107" type="line" smooth="yes"/>
      <point x="46.5918" y="285.107"/>
      <point x="30.5918" y="275.107"/>
      <point x="30.5918" y="254.107" type="curve" smooth="yes"/>
      <point x="30.5918" y="246.107"/>
      <point x="33.5918" y="237.107"/>
      <point x="40.5918" y="237.107" type="curve" smooth="yes"/>
    </contour>
    <contour>
      <point x="253.619" y="331.035" type="line"/>
      <point x="388.619" y="331.035" type="line" smooth="yes"/>
      <point x="399.619" y="331.035"/>
      <point x="413.619" y="343.035"/>
      <point x="413.619" y="360.035" type="curve" smooth="yes"/>
      <point x="413.619" y="369.035"/>
      <point x="410.619" y="379.035"/>
      <point x="403.619" y="379.035" type="curve" smooth="yes"/>
      <point x="253.619" y="379.035" type="line"/>
    </contour>
    <contour>
      <point x="253.619" y="237.349" type="line"/>
      <point x="388.619" y="237.349" type="line" smooth="yes"/>
      <point x="399.619" y="237.349"/>
      <point x="413.619" y="249.349"/>
      <point x="413.619" y="266.349" type="curve" smooth="yes"/>
      <point x="413.619" y="275.349"/>
      <point x="410.619" y="285.349"/>
      <point x="403.619" y="285.349" type="curve" smooth="yes"/>
      <point x="253.619" y="285.349" type="line"/>
    </contour>
  </outline>
</glyph>
<glyph name="uni2174" format="2">
  <advance width="563"/>
  <unicode hex="2174"/>
  <outline>
    <contour>
      <point x="359" y="402" type="curve"/>
      <point x="394.487" y="399.371"/>
      <point x="409.676" y="391.56"/>
      <point x="409.676" y="372.039" type="curve" smooth="yes"/>
      <point x="409.676" y="361.855"/>
      <point x="405.547" y="348.482"/>
      <point x="398" y="331" type="curve" smooth="yes"/>
      <point x="321.158" y="153" type="line" smooth="yes"/>
      <point x="316.327" y="141.81"/>
      <point x="312.819" y="139.386"/>
      <point x="308" y="153" type="curve" smooth="yes"/>
      <point x="245" y="331" type="line" smooth="yes"/>
      <point x="239.548" y="346.403"/>
      <point x="231.468" y="373.539"/>
      <point x="231.468" y="378.887" type="curve" smooth="yes"/>
      <point x="231.468" y="392.386"/>
      <point x="241.4" y="398.911"/>
      <point x="276" y="402" type="curve"/>
      <point x="282" y="408"/>
      <point x="282" y="430"/>
      <point x="276" y="436" type="curve"/>
      <point x="239" y="435"/>
      <point x="199" y="434"/>
      <point x="150" y="434" type="curve" smooth="yes"/>
      <point x="108.963" y="434"/>
      <point x="68.0146" y="434.586"/>
      <point x="27" y="436" type="curve"/>
      <point x="21" y="430"/>
      <point x="21" y="408"/>
      <point x="27" y="402" type="curve"/>
      <point x="67.9117" y="396.989"/>
      <point x="87" y="375"/>
      <point x="107" y="325" type="curve" smooth="yes"/>
      <point x="238" y="9" type="line" smooth="yes"/>
      <point x="244" y="-6"/>
      <point x="261" y="-12"/>
      <point x="274" y="-12" type="curve" smooth="yes"/>
      <point x="284" y="-12"/>
      <point x="304" y="-10"/>
      <point x="313" y="11" type="curve" smooth="yes"/>
      <point x="450" y="324" type="line" smooth="yes"/>
      <point x="470" y="369"/>
      <point x="483" y="397"/>
      <point x="536" y="402" type="curve"/>
      <point x="542" y="408"/>
      <point x="542" y="430"/>
      <point x="536" y="436" type="curve"/>
      <point x="514" y="435"/>
      <point x="482" y="434"/>
      <point x="460" y="434" type="curve" smooth="yes"/>
      <point x="423" y="434"/>
      <point x="386" y="435"/>
      <point x="359" y="436" type="curve"/>
      <point x="353" y="430"/>
      <point x="353" y="408"/>
    </contour>
  </outline>
</glyph>
<glyph name="uni2605" format="2">
  <advance width="610"/>
  <unicode hex="2605"/>
  <outline>
    <contour>
      <point x="194" y="194" type="line"/>
      <point x="122" y="-6" type="line"/>
      <point x="300" y="118" type="line"/>
      <point x="470" y="-5" type="line"/>
      <point x="405" y="191" type="line"/>
      <point x="572" y="307" type="line"/>
      <point x="367" y="307" type="line"/>
      <point x="304" y="500" type="line"/>
      <point x="234" y="307" type="line"/>
      <point x="39" y="307" type="line"/>
    </contour>
  </outline>
</glyph>
<glyph name="nine.numr" format="2">
  <advance width="303"/>
  <outline>
    <contour>
      <point x="24" y="545.224" type="curve" smooth="yes"/>
      <point x="24" y="526.471"/>
      <point x="33" y="444.172"/>
      <point x="144" y="444.172" type="curve" smooth="yes"/>
      <point x="159" y="444.172"/>
      <point x="175" y="448.172"/>
      <point x="189" y="453.172" type="curve"/>
      <point x="173" y="399.172"/>
      <point x="133" y="337.172"/>
      <point x="40" y="320.172" type="curve"/>
      <point x="40" y="299.172" type="line"/>
      <point x="215" y="313.172"/>
      <point x="279" y="422.172"/>
      <point x="279" y="511.666" type="curve" smooth="yes"/>
      <point x="279" y="603.006"/>
      <point x="240.38" y="659.172"/>
      <point x="145" y="659.172" type="curve" smooth="yes"/>
      <point x="56" y="659.172"/>
      <point x="24" y="585.692"/>
    </contour>
    <contour>
      <point x="109" y="550.159" type="curve" smooth="yes"/>
      <point x="109" y="587.666"/>
      <point x="113" y="625.172"/>
      <point x="145" y="625.172" type="curve" smooth="yes"/>
      <point x="174" y="625.172"/>
      <point x="197" y="597.536"/>
      <point x="197" y="513.64" type="curve" smooth="yes"/>
      <point x="197" y="487.977" type="line"/>
      <point x="182" y="476.133"/>
      <point x="172" y="473.172"/>
      <point x="155" y="473.172" type="curve" smooth="yes"/>
      <point x="114" y="473.172"/>
      <point x="109" y="528.445"/>
    </contour>
  </outline>
</glyph>
<glyph name="three.cap" format="2">
  <advance width="555"/>
  <outline>
    <contour>
      <point x="52" y="72.4732" type="curve" smooth="yes"/>
      <point x="52" y="27.9535"/>
      <point x="137.116" y="-10"/>
      <point x="226.233" y="-10" type="curve" smooth="yes"/>
      <point x="379.345" y="-10"/>
      <point x="505" y="105.236"/>
      <point x="505" y="236.458" type="curve" smooth="yes"/>
      <point x="505" y="325.187"/>
      <point x="447.776" y="386.605"/>
      <point x="363.272" y="391.253" type="curve"/>
      <point x="363.281" y="394.121" type="line"/>
      <point x="421.916" y="422.944"/>
      <point x="464" y="483.321"/>
      <point x="464" y="541.262" type="curve" smooth="yes"/>
      <point x="464" y="613.872"/>
      <point x="397.907" y="658"/>
      <point x="295.72" y="658" type="curve" smooth="yes"/>
      <point x="173.518" y="658"/>
      <point x="68" y="595.238"/>
      <point x="68" y="526.135" type="curve" smooth="yes"/>
      <point x="68" y="499.981"/>
      <point x="83.1154" y="485.553"/>
      <point x="114.33" y="485.553" type="curve" smooth="yes"/>
      <point x="151.799" y="485.553"/>
      <point x="174.974" y="506.342"/>
      <point x="175" y="545.742" type="curve" smooth="yes"/>
      <point x="175.03" y="591.898"/>
      <point x="206.831" y="616"/>
      <point x="258.413" y="616" type="curve" smooth="yes"/>
      <point x="313.294" y="616"/>
      <point x="337" y="588.715"/>
      <point x="337" y="538.81" type="curve" smooth="yes"/>
      <point x="337" y="455.843"/>
      <point x="271.482" y="387.328"/>
      <point x="171" y="364.137" type="curve"/>
      <point x="180" y="322.997" type="line"/>
      <point x="208.227" y="330.386"/>
      <point x="217.5" y="332.028"/>
      <point x="232.676" y="332.028" type="curve" smooth="yes"/>
      <point x="318.235" y="332.028"/>
      <point x="365" y="279.838"/>
      <point x="365" y="187.158" type="curve" smooth="yes"/>
      <point x="365" y="95.3142"/>
      <point x="319.092" y="32"/>
      <point x="252.437" y="32" type="curve" smooth="yes"/>
      <point x="220.782" y="32"/>
      <point x="196.533" y="46.2805"/>
      <point x="178.256" y="76.3117" type="curve" smooth="yes"/>
      <point x="157.672" y="110.136"/>
      <point x="132.359" y="119.299"/>
      <point x="110.915" y="119.299" type="curve" smooth="yes"/>
      <point x="77.3261" y="119.299"/>
      <point x="52" y="96.8181"/>
    </contour>
  </outline>
</glyph>
<glyph name="two.numr" format="2">
  <advance width="317"/>
  <outline>
    <contour>
      <point x="26" y="574" type="curve" smooth="yes"/>
      <point x="26" y="544.426"/>
      <point x="36.6163" y="531"/>
      <point x="60" y="531" type="curve" smooth="yes"/>
      <point x="86.214" y="531"/>
      <point x="104" y="547.169"/>
      <point x="104" y="571" type="curve" smooth="yes"/>
      <point x="104" y="580.07"/>
      <point x="102.602" y="599.307"/>
      <point x="105" y="609" type="curve"/>
      <point x="112.438" y="621.927"/>
      <point x="123.148" y="627"/>
      <point x="143" y="627" type="curve" smooth="yes"/>
      <point x="173.959" y="627"/>
      <point x="188.28" y="608.074"/>
      <point x="188.28" y="567.158" type="curve" smooth="yes"/>
      <point x="188.28" y="532.994"/>
      <point x="171.466" y="495.15"/>
      <point x="146" y="472" type="curve" smooth="yes"/>
      <point x="124" y="452" type="line" smooth="yes"/>
      <point x="53.7742" y="388.158"/>
      <point x="24.1337" y="348.784"/>
      <point x="24.235" y="319.473" type="curve" smooth="yes"/>
      <point x="24.2554" y="313.579"/>
      <point x="25.5083" y="308.097"/>
      <point x="28" y="303" type="curve"/>
      <point x="264" y="303" type="line"/>
      <point x="270.274" y="334.948"/>
      <point x="281.5" y="378.689"/>
      <point x="293" y="416" type="curve"/>
      <point x="288.488" y="419.61"/>
      <point x="277.333" y="422"/>
      <point x="265" y="422" type="curve"/>
      <point x="251.356" y="384.789"/>
      <point x="224.968" y="360"/>
      <point x="199" y="360" type="curve" smooth="yes"/>
      <point x="117" y="360" type="line"/>
      <point x="119.88" y="376.168"/>
      <point x="141.011" y="402.581"/>
      <point x="173" y="430" type="curve" smooth="yes"/>
      <point x="187" y="442" type="line" smooth="yes"/>
      <point x="256.037" y="501.174"/>
      <point x="277.496" y="530.696"/>
      <point x="277.496" y="566.496" type="curve" smooth="yes"/>
      <point x="277.496" y="625.854"/>
      <point x="236.029" y="657"/>
      <point x="157" y="657" type="curve" smooth="yes"/>
      <point x="95.4036" y="657"/>
      <point x="26" y="613.027"/>
    </contour>
  </outline>
</glyph>
